<svg xmlns="http://www.w3.org/2000/svg" width="200" height="260" viewBox="0 0 200 260">
  <rect width="200" height="260" fill="#fff" stroke="#e5e7eb" stroke-width="1"/>
  <!-- Centered name -->
  <rect x="50" y="14" width="100" height="8" rx="2" fill="#111"/>
  <rect x="30" y="26" width="140" height="3" rx="1" fill="#9ca3af"/>
  <!-- Double rule -->
  <rect x="14" y="36" width="172" height="1" fill="#111"/>
  <rect x="14" y="39" width="172" height="1" fill="#111"/>
  <!-- Section: Summary (centered heading) -->
  <rect x="65" y="47" width="70" height="5" rx="1" fill="#111"/>
  <rect x="14" y="49" width="172" height="0.5" fill="#111"/>
  <rect x="14" y="57" width="172" height="3" rx="1" fill="#d1d5db"/>
  <rect x="14" y="63" width="150" height="3" rx="1" fill="#d1d5db"/>
  <!-- Section: Experience -->
  <rect x="60" y="74" width="80" height="5" rx="1" fill="#111"/>
  <rect x="14" y="76" width="172" height="0.5" fill="#111"/>
  <rect x="14" y="84" width="130" height="4" rx="1" fill="#374151"/>
  <rect x="18" y="92" width="160" height="3" rx="1" fill="#d1d5db"/>
  <rect x="18" y="98" width="150" height="3" rx="1" fill="#d1d5db"/>
  <rect x="18" y="104" width="130" height="3" rx="1" fill="#d1d5db"/>
  <!-- Section: Education -->
  <rect x="60" y="116" width="80" height="5" rx="1" fill="#111"/>
  <rect x="14" y="118" width="172" height="0.5" fill="#111"/>
  <rect x="14" y="126" width="120" height="4" rx="1" fill="#374151"/>
  <rect x="14" y="133" width="90" height="3" rx="1" fill="#9ca3af"/>
  <!-- Section: Skills -->
  <rect x="70" y="144" width="60" height="5" rx="1" fill="#111"/>
  <rect x="14" y="146" width="172" height="0.5" fill="#111"/>
  <rect x="14" y="154" width="172" height="3" rx="1" fill="#d1d5db"/>
  <rect x="14" y="160" width="130" height="3" rx="1" fill="#d1d5db"/>
</svg>
