<svg xmlns="http://www.w3.org/2000/svg" width="200" height="260" viewBox="0 0 200 260">
  <rect width="200" height="260" fill="#fff" stroke="#e5e7eb" stroke-width="1"/>
  <!-- Blue accent left bar -->
  <rect x="0" y="0" width="4" height="260" fill="#2563eb"/>
  <!-- Name with blue accent -->
  <rect x="16" y="14" width="100" height="8" rx="2" fill="#1e40af"/>
  <rect x="16" y="26" width="150" height="3" rx="1" fill="#9ca3af"/>
  <!-- Summary -->
  <rect x="16" y="38" width="55" height="5" rx="1" fill="#1e40af"/>
  <rect x="16" y="44" width="170" height="0.5" fill="#2563eb"/>
  <rect x="16" y="48" width="170" height="3" rx="1" fill="#d1d5db"/>
  <rect x="16" y="54" width="140" height="3" rx="1" fill="#d1d5db"/>
  <!-- Experience -->
  <rect x="16" y="64" width="68" height="5" rx="1" fill="#1e40af"/>
  <rect x="16" y="70" width="170" height="0.5" fill="#2563eb"/>
  <!-- Job 1 -->
  <rect x="16" y="75" width="110" height="4" rx="1" fill="#1e40af"/>
  <rect x="16" y="82" width="80" height="3" rx="1" fill="#6b7280"/>
  <rect x="20" y="88" width="162" height="3" rx="1" fill="#d1d5db"/>
  <rect x="20" y="94" width="150" height="3" rx="1" fill="#d1d5db"/>
  <rect x="20" y="100" width="130" height="3" rx="1" fill="#d1d5db"/>
  <!-- Job 2 -->
  <rect x="16" y="109" width="110" height="4" rx="1" fill="#1e40af"/>
  <rect x="16" y="116" width="80" height="3" rx="1" fill="#6b7280"/>
  <rect x="20" y="122" width="162" height="3" rx="1" fill="#d1d5db"/>
  <rect x="20" y="128" width="140" height="3" rx="1" fill="#d1d5db"/>
  <!-- Education -->
  <rect x="16" y="140" width="62" height="5" rx="1" fill="#1e40af"/>
  <rect x="16" y="146" width="170" height="0.5" fill="#2563eb"/>
  <rect x="16" y="151" width="120" height="4" rx="1" fill="#374151"/>
  <rect x="16" y="158" width="90" height="3" rx="1" fill="#9ca3af"/>
  <!-- Skills -->
  <rect x="16" y="169" width="38" height="5" rx="1" fill="#1e40af"/>
  <rect x="16" y="175" width="170" height="0.5" fill="#2563eb"/>
  <rect x="16" y="180" width="170" height="3" rx="1" fill="#d1d5db"/>
  <rect x="16" y="186" width="130" height="3" rx="1" fill="#d1d5db"/>
</svg>
