<svg xmlns="http://www.w3.org/2000/svg" width="200" height="260" viewBox="0 0 200 260">
  <rect width="200" height="260" fill="#fff" stroke="#e5e7eb" stroke-width="1"/>
  <!-- Name -->
  <rect x="14" y="14" width="100" height="8" rx="2" fill="#1a1a2e"/>
  <rect x="14" y="26" width="140" height="4" rx="1" fill="#9ca3af"/>
  <!-- Divider -->
  <rect x="14" y="38" width="172" height="1.5" fill="#1a1a2e"/>
  <!-- Section: Summary -->
  <rect x="14" y="46" width="50" height="5" rx="1" fill="#1a1a2e"/>
  <rect x="14" y="55" width="172" height="3" rx="1" fill="#d1d5db"/>
  <rect x="14" y="61" width="140" height="3" rx="1" fill="#d1d5db"/>
  <!-- Section: Experience -->
  <rect x="14" y="72" width="66" height="5" rx="1" fill="#1a1a2e"/>
  <rect x="14" y="82" width="120" height="4" rx="1" fill="#374151"/>
  <rect x="14" y="89" width="80" height="3" rx="1" fill="#9ca3af"/>
  <rect x="18" y="96" width="160" height="3" rx="1" fill="#d1d5db"/>
  <rect x="18" y="102" width="150" height="3" rx="1" fill="#d1d5db"/>
  <rect x="18" y="108" width="130" height="3" rx="1" fill="#d1d5db"/>
  <rect x="14" y="118" width="120" height="4" rx="1" fill="#374151"/>
  <rect x="14" y="125" width="80" height="3" rx="1" fill="#9ca3af"/>
  <rect x="18" y="132" width="160" height="3" rx="1" fill="#d1d5db"/>
  <rect x="18" y="138" width="140" height="3" rx="1" fill="#d1d5db"/>
  <!-- Section: Education -->
  <rect x="14" y="150" width="60" height="5" rx="1" fill="#1a1a2e"/>
  <rect x="14" y="160" width="110" height="4" rx="1" fill="#374151"/>
  <rect x="14" y="167" width="80" height="3" rx="1" fill="#9ca3af"/>
  <!-- Section: Skills -->
  <rect x="14" y="178" width="36" height="5" rx="1" fill="#1a1a2e"/>
  <rect x="14" y="188" width="172" height="3" rx="1" fill="#d1d5db"/>
  <rect x="14" y="194" width="120" height="3" rx="1" fill="#d1d5db"/>
</svg>
