<svg xmlns="http://www.w3.org/2000/svg" width="200" height="260" viewBox="0 0 200 260">
  <rect width="200" height="260" fill="#fff" stroke="#e5e7eb" stroke-width="1"/>
  <!-- Name -->
  <rect x="14" y="14" width="95" height="7" rx="2" fill="#111"/>
  <rect x="14" y="25" width="150" height="3" rx="1" fill="#9ca3af"/>
  <!-- Green divider -->
  <rect x="14" y="34" width="172" height="1.5" fill="#14532d"/>
  <!-- Education FIRST (new grad) -->
  <rect x="14" y="41" width="60" height="5" rx="1" fill="#14532d"/>
  <rect x="14" y="51" width="110" height="4" rx="1" fill="#374151"/>
  <rect x="14" y="58" width="90" height="3" rx="1" fill="#9ca3af"/>
  <rect x="14" y="64" width="140" height="3" rx="1" fill="#d1d5db"/>
  <!-- Projects -->
  <rect x="14" y="74" width="48" height="5" rx="1" fill="#14532d"/>
  <rect x="14" y="84" width="110" height="4" rx="1" fill="#374151"/>
  <rect x="14" y="91" width="80" height="3" rx="1" fill="#9ca3af"/>
  <rect x="14" y="97" width="172" height="3" rx="1" fill="#d1d5db"/>
  <rect x="14" y="103" width="150" height="3" rx="1" fill="#d1d5db"/>
  <!-- Skills -->
  <rect x="14" y="114" width="36" height="5" rx="1" fill="#14532d"/>
  <rect x="14" y="124" width="172" height="3" rx="1" fill="#d1d5db"/>
  <rect x="14" y="130" width="120" height="3" rx="1" fill="#d1d5db"/>
  <!-- Experience (smaller, after edu+projects) -->
  <rect x="14" y="141" width="62" height="5" rx="1" fill="#14532d"/>
  <rect x="14" y="151" width="110" height="4" rx="1" fill="#374151"/>
  <rect x="14" y="158" width="80" height="3" rx="1" fill="#9ca3af"/>
  <rect x="18" y="164" width="164" height="3" rx="1" fill="#d1d5db"/>
  <rect x="18" y="170" width="150" height="3" rx="1" fill="#d1d5db"/>
</svg>
